<svg width="60" height="60" viewBox="0 0 60 60" fill="none" xmlns="http://www.w3.org/2000/svg">
<g clip-path="url(#clip0_224_10586)">
<path d="M30 0C13.5 0 0 13.5 0 30C0 46.5 13.5 60 30 60C46.5 60 60 46.5 60 30C60 13.5 46.5 0 30 0ZM30 58.125C14.4375 58.125 1.875 45.5625 1.875 30C1.875 14.4375 14.4375 1.875 30 1.875C45.5625 1.875 58.125 14.4375 58.125 30C58.125 45.5625 45.5625 58.125 30 58.125Z" fill="url(#paint0_linear_224_10586)"/>
<path d="M30 9.375C30.5625 9.375 30.9375 9 30.9375 8.4375V4.6875C30.9375 4.125 30.5625 3.75 30 3.75C29.4375 3.75 29.0625 4.125 29.0625 4.6875V8.4375C29.0625 9 29.4375 9.375 30 9.375Z" fill="url(#paint1_linear_224_10586)"/>
<path d="M30 50.625C29.4375 50.625 29.0625 51 29.0625 51.5625V55.3125C29.0625 55.875 29.4375 56.25 30 56.25C30.5625 56.25 30.9375 55.875 30.9375 55.3125V51.5625C30.9375 51 30.5625 50.625 30 50.625Z" fill="url(#paint2_linear_224_10586)"/>
<path d="M55.3125 29.0625H51.5625C51 29.0625 50.625 29.4375 50.625 30C50.625 30.5625 51 30.9375 51.5625 30.9375H55.3125C55.875 30.9375 56.25 30.5625 56.25 30C56.25 29.4375 55.875 29.0625 55.3125 29.0625Z" fill="url(#paint3_linear_224_10586)"/>
<path d="M8.4375 29.0625H4.6875C4.125 29.0625 3.75 29.4375 3.75 30C3.75 30.5625 4.125 30.9375 4.6875 30.9375H8.4375C9 30.9375 9.375 30.5625 9.375 30C9.375 29.4375 9 29.0625 8.4375 29.0625Z" fill="url(#paint4_linear_224_10586)"/>
<path d="M47.25 11.4375L45.9375 12.75C45.5625 13.125 45.5625 13.6875 45.9375 14.0625C46.125 14.25 46.3125 14.25 46.6875 14.25C47.0625 14.25 47.25 14.25 47.4375 14.0625L48.75 12.75C49.125 12.375 49.125 11.8125 48.75 11.4375C48.375 11.0625 47.625 11.0625 47.25 11.4375Z" fill="url(#paint5_linear_224_10586)"/>
<path d="M12.75 45.9375L11.4375 47.25C11.0625 47.625 11.0625 48.1875 11.4375 48.5625C11.625 48.75 11.8125 48.75 12.1875 48.75C12.5625 48.75 12.75 48.75 12.9375 48.5625L14.25 47.25C14.625 46.875 14.625 46.3125 14.25 45.9375C13.875 45.5625 13.125 45.5625 12.75 45.9375Z" fill="url(#paint6_linear_224_10586)"/>
<path d="M47.25 45.9375C46.875 45.5625 46.3125 45.5625 45.9375 45.9375C45.5625 46.3125 45.5625 46.875 45.9375 47.25L47.25 48.5625C47.4375 48.75 47.625 48.75 48 48.75C48.375 48.75 48.5625 48.75 48.75 48.5625C49.125 48.1875 49.125 47.625 48.75 47.25L47.25 45.9375Z" fill="url(#paint7_linear_224_10586)"/>
<path d="M12.75 14.0625C12.9375 14.25 13.125 14.4375 13.5 14.4375C13.875 14.4375 14.0625 14.4375 14.25 14.25C14.625 13.875 14.625 13.3125 14.25 12.9375L12.75 11.4375C12.375 11.0625 11.8125 11.0625 11.4375 11.4375C11.0625 11.8125 11.0625 12.375 11.4375 12.75L12.75 14.0625Z" fill="url(#paint8_linear_224_10586)"/>
<path d="M51.5625 21.9375H51.9375L53.625 21.1875C54.1875 21 54.375 20.4375 54.1875 19.875C54 19.3125 53.4375 19.125 52.875 19.3125L51.1875 20.0625C50.625 20.25 50.4375 20.8125 50.625 21.375C51 21.75 51.1875 21.9375 51.5625 21.9375Z" fill="url(#paint9_linear_224_10586)"/>
<path d="M8.0625 38.0625L6.375 38.8125C5.8125 39 5.625 39.5625 5.8125 40.125C6 40.5 6.375 40.6875 6.75 40.6875H7.125L8.8125 39.9375C9.375 39.75 9.5625 39.1875 9.375 38.625C9 38.0625 8.4375 37.875 8.0625 38.0625Z" fill="url(#paint10_linear_224_10586)"/>
<path d="M39.9375 51.375C39.75 50.8125 39.1875 50.625 38.625 50.8125C38.0625 51 37.875 51.5625 38.0625 52.125L38.8125 53.8125C39 54.1875 39.375 54.375 39.75 54.375H40.125C40.6875 54.1875 40.875 53.625 40.6875 53.0625L39.9375 51.375Z" fill="url(#paint11_linear_224_10586)"/>
<path d="M20.0625 8.625C20.25 9 20.625 9.375 21 9.375H21.375C21.9375 9.1875 22.125 8.625 21.9375 8.0625L21.1875 6.375C21 5.8125 20.4375 5.625 19.875 5.8125C19.3125 6 19.125 6.5625 19.3125 7.125L20.0625 8.625Z" fill="url(#paint12_linear_224_10586)"/>
<path d="M6.1875 21.1875L7.875 21.9375H8.25C8.625 21.9375 9 21.75 9.1875 21.375C9.375 20.8125 9.1875 20.4375 8.625 20.0625L6.9375 19.3125C6.375 19.125 6 19.3125 5.625 19.875C5.625 20.4375 5.8125 21 6.1875 21.1875Z" fill="url(#paint13_linear_224_10586)"/>
<path d="M53.8125 38.8125L52.125 38.0625C51.5625 37.875 51.1875 38.0625 50.8125 38.625C50.625 39.1875 50.8125 39.5625 51.375 39.9375L53.0625 40.6875H53.4375C53.8125 40.6875 54.1875 40.5 54.375 40.125C54.375 39.5625 54.1875 39 53.8125 38.8125Z" fill="url(#paint14_linear_224_10586)"/>
<path d="M21.375 50.8125C20.8125 50.625 20.4375 50.8125 20.0625 51.375L19.3125 53.0625C19.125 53.625 19.3125 54 19.875 54.375H20.25C20.625 54.375 21 54.1875 21.1875 53.8125L21.9375 52.125C22.125 51.5625 21.9375 51 21.375 50.8125Z" fill="url(#paint15_linear_224_10586)"/>
<path d="M38.625 9.1875H39C39.375 9.1875 39.75 9 39.9375 8.625L40.6875 6.9375C40.875 6.375 40.6875 6 40.125 5.625C39.5625 5.4375 39.1875 5.625 38.8125 6.1875L38.0625 7.875C37.875 8.4375 38.0625 9 38.625 9.1875Z" fill="url(#paint16_linear_224_10586)"/>
<path d="M37.9492 36.2363V35.2988H38.8867C39.4492 35.2988 39.8242 34.9238 39.8242 34.3613C39.8242 33.7988 39.4492 33.4238 38.8867 33.4238H37.9492V28.7363C37.9492 28.1738 37.5742 27.7988 37.0117 27.7988C36.4492 27.7988 36.0742 28.1738 36.0742 28.7363V33.4238H32.5117L34.1992 25.1738C34.3867 24.6113 34.0117 24.2363 33.4492 24.0488C32.8867 23.8613 32.5117 24.2363 32.3242 24.7988L30.4492 34.1738C30.4492 34.3613 30.4492 34.7363 30.6367 34.9238C30.8242 35.1113 31.0117 35.2988 31.3867 35.2988H36.0742V36.2363C36.0742 36.7988 36.4492 37.1738 37.0117 37.1738C37.5742 37.1738 37.9492 36.6113 37.9492 36.2363Z" fill="url(#paint17_linear_224_10586)"/>
<path d="M28.5742 28.7344C28.5742 26.1094 26.5117 24.0469 23.8867 24.0469C21.2617 24.0469 19.1992 26.1094 19.1992 28.7344C19.1992 29.2969 19.5742 29.6719 20.1367 29.6719C20.6992 29.6719 21.0742 29.2969 21.0742 28.7344C21.0742 27.2344 22.3867 25.9219 23.8867 25.9219C25.3867 25.9219 26.6992 27.2344 26.6992 28.7344C26.6992 29.4844 26.3242 30.2344 25.9492 30.6094L19.5742 35.4844C19.1992 35.6719 19.1992 36.2344 19.1992 36.6094C19.1992 36.9844 19.7617 37.1719 20.1367 37.1719H27.6367C28.1992 37.1719 28.5742 36.7969 28.5742 36.2344C28.5742 35.6719 28.1992 35.2969 27.6367 35.2969H22.9492L27.2617 32.1094C28.0117 30.9844 28.5742 29.8594 28.5742 28.7344Z" fill="url(#paint18_linear_224_10586)"/>
</g>
<defs>
<linearGradient id="paint0_linear_224_10586" x1="7.26562" y1="30.0038" x2="50.1731" y2="30.0038" gradientUnits="userSpaceOnUse">
<stop stop-color="#2B2E81"/>
<stop offset="1" stop-color="#BE4F9C"/>
</linearGradient>
<linearGradient id="paint1_linear_224_10586" x1="7.26562" y1="6.56625" x2="50.1731" y2="6.56625" gradientUnits="userSpaceOnUse">
<stop stop-color="#2B2E81"/>
<stop offset="1" stop-color="#BE4F9C"/>
</linearGradient>
<linearGradient id="paint2_linear_224_10586" x1="7.26562" y1="53.4413" x2="50.1731" y2="53.4413" gradientUnits="userSpaceOnUse">
<stop stop-color="#2B2E81"/>
<stop offset="1" stop-color="#BE4F9C"/>
</linearGradient>
<linearGradient id="paint3_linear_224_10586" x1="7.26562" y1="30.0037" x2="50.1731" y2="30.0037" gradientUnits="userSpaceOnUse">
<stop stop-color="#2B2E81"/>
<stop offset="1" stop-color="#BE4F9C"/>
</linearGradient>
<linearGradient id="paint4_linear_224_10586" x1="7.26562" y1="30.0037" x2="50.1731" y2="30.0037" gradientUnits="userSpaceOnUse">
<stop stop-color="#2B2E81"/>
<stop offset="1" stop-color="#BE4F9C"/>
</linearGradient>
<linearGradient id="paint5_linear_224_10586" x1="7.26562" y1="12.7669" x2="50.1731" y2="12.7669" gradientUnits="userSpaceOnUse">
<stop stop-color="#2B2E81"/>
<stop offset="1" stop-color="#BE4F9C"/>
</linearGradient>
<linearGradient id="paint6_linear_224_10586" x1="7.26562" y1="47.2387" x2="50.1731" y2="47.2387" gradientUnits="userSpaceOnUse">
<stop stop-color="#2B2E81"/>
<stop offset="1" stop-color="#BE4F9C"/>
</linearGradient>
<linearGradient id="paint7_linear_224_10586" x1="7.26562" y1="47.2387" x2="50.1731" y2="47.2387" gradientUnits="userSpaceOnUse">
<stop stop-color="#2B2E81"/>
<stop offset="1" stop-color="#BE4F9C"/>
</linearGradient>
<linearGradient id="paint8_linear_224_10586" x1="7.26562" y1="12.7669" x2="50.1731" y2="12.7669" gradientUnits="userSpaceOnUse">
<stop stop-color="#2B2E81"/>
<stop offset="1" stop-color="#BE4F9C"/>
</linearGradient>
<linearGradient id="paint9_linear_224_10586" x1="7.26563" y1="20.6587" x2="50.1731" y2="20.6587" gradientUnits="userSpaceOnUse">
<stop stop-color="#2B2E81"/>
<stop offset="1" stop-color="#BE4F9C"/>
</linearGradient>
<linearGradient id="paint10_linear_224_10586" x1="7.26562" y1="39.3469" x2="50.1731" y2="39.3469" gradientUnits="userSpaceOnUse">
<stop stop-color="#2B2E81"/>
<stop offset="1" stop-color="#BE4F9C"/>
</linearGradient>
<linearGradient id="paint11_linear_224_10586" x1="7.2656" y1="52.5169" x2="50.1731" y2="52.5169" gradientUnits="userSpaceOnUse">
<stop stop-color="#2B2E81"/>
<stop offset="1" stop-color="#BE4F9C"/>
</linearGradient>
<linearGradient id="paint12_linear_224_10586" x1="7.26563" y1="7.49062" x2="50.1731" y2="7.49062" gradientUnits="userSpaceOnUse">
<stop stop-color="#2B2E81"/>
<stop offset="1" stop-color="#BE4F9C"/>
</linearGradient>
<linearGradient id="paint13_linear_224_10586" x1="7.26563" y1="20.6587" x2="50.1731" y2="20.6587" gradientUnits="userSpaceOnUse">
<stop stop-color="#2B2E81"/>
<stop offset="1" stop-color="#BE4F9C"/>
</linearGradient>
<linearGradient id="paint14_linear_224_10586" x1="7.26563" y1="39.3469" x2="50.1731" y2="39.3469" gradientUnits="userSpaceOnUse">
<stop stop-color="#2B2E81"/>
<stop offset="1" stop-color="#BE4F9C"/>
</linearGradient>
<linearGradient id="paint15_linear_224_10586" x1="7.26563" y1="52.5169" x2="50.1731" y2="52.5169" gradientUnits="userSpaceOnUse">
<stop stop-color="#2B2E81"/>
<stop offset="1" stop-color="#BE4F9C"/>
</linearGradient>
<linearGradient id="paint16_linear_224_10586" x1="7.2656" y1="7.48875" x2="50.1731" y2="7.48875" gradientUnits="userSpaceOnUse">
<stop stop-color="#2B2E81"/>
<stop offset="1" stop-color="#BE4F9C"/>
</linearGradient>
<linearGradient id="paint17_linear_224_10586" x1="12.4023" y1="30.5194" x2="55.3098" y2="30.5194" gradientUnits="userSpaceOnUse">
<stop stop-color="#2B2E81"/>
<stop offset="1" stop-color="#BE4F9C"/>
</linearGradient>
<linearGradient id="paint18_linear_224_10586" x1="12.4023" y1="30.5194" x2="55.3098" y2="30.5194" gradientUnits="userSpaceOnUse">
<stop stop-color="#2B2E81"/>
<stop offset="1" stop-color="#BE4F9C"/>
</linearGradient>
<clipPath id="clip0_224_10586">
<rect width="60" height="60" fill="white"/>
</clipPath>
</defs>
</svg>
