<svg width="140" height="43" viewBox="0 0 140 43" fill="none" xmlns="http://www.w3.org/2000/svg">
<path d="M139 10.402V31.7434V36.7473C139 37.9002 139 38.4767 138.882 38.9516C138.525 40.3895 137.402 41.5122 135.964 41.8694C135.489 41.9873 134.913 41.9873 133.76 41.9873H121.5L7.01365 41.9873C5.33625 41.9873 4.49755 41.9873 3.90686 41.7998C2.0965 41.225 0.939998 39.4564 1.13939 37.5674C1.20445 36.9511 1.54075 36.1828 2.21337 34.6462L7.04817 23.6007C7.26175 23.1128 7.36853 22.8688 7.44048 22.623C7.65515 21.8894 7.65515 21.1097 7.44048 20.3761C7.36853 20.1302 7.26175 19.8863 7.04817 19.3984L2.21337 8.35289C1.54075 6.81625 1.20445 6.04793 1.13939 5.43162C0.939998 3.5427 2.0965 1.77403 3.90686 1.19926C4.49755 1.01172 5.33625 1.01172 7.01365 1.01172L121.5 1.01172L133.756 1.00351C134.91 1.00274 135.487 1.00235 135.962 1.12011C137.401 1.47662 138.524 2.5995 138.882 4.03798C139 4.5131 139 5.0899 139 6.24351V10.402Z" stroke="#489B1C" stroke-linecap="round" stroke-linejoin="round"/>
</svg>
