<svg width="60" height="60" viewBox="0 0 60 60" fill="none" xmlns="http://www.w3.org/2000/svg">
<path d="M50.8125 12.3767L45.1875 18.0017C44.8125 18.3767 44.8125 18.9392 45.1875 19.3142C45.375 19.5017 45.5625 19.5017 45.9375 19.5017C46.3125 19.5017 46.5 19.5017 46.6875 19.3142L52.3125 13.6892C52.6875 13.3142 52.6875 12.7517 52.3125 12.3767C51.9375 12.0017 51.1875 12.1892 50.8125 12.3767Z" fill="url(#paint0_linear_224_10571)"/>
<path d="M42.9375 45.5617C42.9375 45.3742 42.9375 45.3742 42.75 45.1867C42.5625 44.8117 42.5625 44.6242 42.375 44.2492V44.0617C41.4375 41.8117 39.5625 39.9367 37.125 39.1867L29.0625 36.5617V32.8117C31.5 31.1242 33.1875 28.4992 33.75 25.4992H34.875C36.375 25.4992 37.6875 24.1867 37.6875 22.6867V20.8117C37.6875 19.3117 36.375 17.9992 34.875 17.9992L35.8125 15.3742C36.1875 13.8742 35.8125 12.5617 34.875 11.4367C34.125 10.4992 33.1875 9.93667 32.0625 9.74917C31.875 8.43667 31.125 7.12417 30.1875 6.18667C28.875 5.06167 27.1875 4.68667 25.6875 4.87417L14.4375 6.74917C12.5625 6.93667 11.25 7.68667 10.5 8.99917C9.5625 10.1242 9.1875 11.6242 9.5625 13.3117L10.6875 17.8117H10.3125C8.8125 17.8117 7.5 19.1242 7.5 20.6242V22.4992C7.5 23.9992 8.8125 25.3117 10.3125 25.3117H11.4375C12 28.3117 13.6875 30.9367 16.125 32.6242V36.3742L8.0625 38.9992C5.625 39.7492 3.75 41.6242 2.8125 43.8742V44.0617C2.625 44.4367 2.625 44.6242 2.4375 44.9992C2.4375 45.1867 2.4375 45.1867 2.25 45.3742C2.25 45.5617 2.0625 45.9367 2.0625 46.1242C1.875 46.6867 1.875 47.0617 1.875 47.4367V54.3742C1.875 54.9367 2.25 55.3117 2.8125 55.3117H42C42.5625 55.3117 42.9375 54.9367 42.9375 54.3742V47.4367C42.9375 47.0617 42.9375 46.6867 42.75 46.1242C42.9375 45.9367 42.9375 45.7492 42.9375 45.5617ZM36.5625 40.8742C37.6875 41.2492 38.8125 41.9992 39.5625 42.7492C35.0625 43.8742 31.875 47.9992 31.875 52.6867V53.2492H23.4375V42.1867C24.5625 41.6242 27.1875 40.1242 28.3125 38.0617L36.5625 40.8742ZM34.6875 19.6867C35.25 19.6867 35.625 20.0617 35.625 20.6242V22.4992C35.625 23.0617 35.25 23.4367 34.6875 23.4367H33.75V20.6242V20.4367L33.9375 19.6867H34.6875ZM12 9.93667C12.5625 9.18667 13.5 8.62417 14.4375 8.43667L25.6875 6.56167C26.8125 6.37417 27.9375 6.74917 28.6875 7.31167C29.4375 8.06167 30 9.18667 30 10.3117C30 10.8742 30.375 11.2492 30.9375 11.2492C31.875 11.2492 32.625 11.6242 33.1875 12.3742C33.75 13.1242 33.9375 13.8742 33.75 14.6242L32.25 19.1242C31.875 19.1242 31.5 18.7492 31.5 18.3742V15.3742C31.5 14.6242 31.125 14.0617 30.5625 13.8742C30 13.4992 29.25 13.6867 28.6875 14.0617C25.6875 16.3117 21.75 17.2492 18 16.4992L16.125 16.1242C14.8125 16.1242 13.5 17.2492 13.5 18.7492C13.5 19.1242 13.3125 19.3117 12.9375 19.4992L11.25 12.9367C11.0625 11.8117 11.4375 10.8742 12 9.93667ZM11.25 23.4367H10.3125C9.75 23.4367 9.375 23.0617 9.375 22.4992V20.6242C9.375 20.0617 9.75 19.6867 10.3125 19.6867H11.0625L11.25 20.4367V23.4367ZM13.125 23.4367V21.1867C14.4375 20.9992 15.375 20.0617 15.375 18.7492C15.375 18.3742 15.75 17.9992 15.9375 17.9992L17.625 18.3742C21.75 19.1242 26.0625 18.1867 29.625 15.7492V18.7492C29.625 20.0617 30.5625 21.1867 31.875 21.1867V23.4367C31.875 28.6867 27.75 32.8117 22.5 32.8117C17.25 32.8117 13.125 28.4992 13.125 23.4367ZM22.5 34.6867C24.1875 34.6867 25.6875 34.3117 27 33.7492V36.3742C27 38.2492 24 40.1242 22.5 40.8742C21 40.1242 18 38.2492 18 36.3742V33.7492C19.3125 34.3117 20.8125 34.6867 22.5 34.6867ZM8.4375 40.8742L16.5 38.2492C17.625 40.3117 20.25 41.8117 21.375 42.3742V53.4367H13.125V52.8742C13.125 48.1867 9.9375 44.0617 5.4375 42.9367C6.375 41.9992 7.3125 41.2492 8.4375 40.8742ZM3.75 53.4367V47.4367C3.75 46.8742 3.75 46.4992 3.9375 45.9367V45.7492C4.125 45.1867 4.125 44.8117 4.5 44.4367C8.4375 45.1867 11.25 48.7492 11.25 52.8742V53.4367H3.75ZM41.25 53.4367H33.75V52.8742C33.75 48.7492 36.75 45.3742 40.6875 44.4367C40.875 44.8117 41.0625 45.3742 41.25 45.7492V45.9367C41.4375 46.4992 41.4375 46.8742 41.4375 47.4367V53.4367H41.25Z" fill="url(#paint1_linear_224_10571)"/>
<path d="M55.3125 8.4375H42.1875C40.6875 8.4375 39.375 9.75 39.375 11.25V20.625C39.375 22.125 40.6875 23.4375 42.1875 23.4375H43.125V26.25C43.125 26.625 43.3125 27 43.6875 27C43.875 27 44.0625 27.1875 44.0625 27.1875C44.25 27.1875 44.4375 27.1875 44.625 27L50.0625 23.4375H55.3125C56.8125 23.4375 58.125 22.125 58.125 20.625V11.25C58.125 9.75 56.8125 8.4375 55.3125 8.4375ZM56.25 20.625C56.25 21.1875 55.875 21.5625 55.3125 21.5625H49.6875C49.5 21.5625 49.3125 21.5625 49.125 21.75L45 24.5625V22.5C45 21.9375 44.625 21.5625 44.0625 21.5625H42.1875C41.625 21.5625 41.25 21.1875 41.25 20.625V11.25C41.25 10.6875 41.625 10.3125 42.1875 10.3125H55.3125C55.875 10.3125 56.25 10.6875 56.25 11.25V20.625Z" fill="url(#paint2_linear_224_10571)"/>
<path d="M46.5 15.1875C47.3284 15.1875 48 14.5159 48 13.6875C48 12.8591 47.3284 12.1875 46.5 12.1875C45.6716 12.1875 45 12.8591 45 13.6875C45 14.5159 45.6716 15.1875 46.5 15.1875Z" fill="url(#paint3_linear_224_10571)"/>
<path d="M51 19.875C51.8284 19.875 52.5 19.2034 52.5 18.375C52.5 17.5466 51.8284 16.875 51 16.875C50.1716 16.875 49.5 17.5466 49.5 18.375C49.5 19.2034 50.1716 19.875 51 19.875Z" fill="url(#paint4_linear_224_10571)"/>
<defs>
<linearGradient id="paint0_linear_224_10571" x1="4.21875" y1="15.9392" x2="43.6181" y2="15.9392" gradientUnits="userSpaceOnUse">
<stop stop-color="#2B2E81"/>
<stop offset="1" stop-color="#BE4F9C"/>
</linearGradient>
<linearGradient id="paint1_linear_224_10571" x1="4.21875" y1="29.9992" x2="43.6181" y2="29.9992" gradientUnits="userSpaceOnUse">
<stop stop-color="#2B2E81"/>
<stop offset="1" stop-color="#BE4F9C"/>
</linearGradient>
<linearGradient id="paint2_linear_224_10571" x1="4.21875" y1="17.8013" x2="43.6181" y2="17.8013" gradientUnits="userSpaceOnUse">
<stop stop-color="#2B2E81"/>
<stop offset="1" stop-color="#BE4F9C"/>
</linearGradient>
<linearGradient id="paint3_linear_224_10571" x1="4.21874" y1="13.5994" x2="43.6181" y2="13.5994" gradientUnits="userSpaceOnUse">
<stop stop-color="#2B2E81"/>
<stop offset="1" stop-color="#BE4F9C"/>
</linearGradient>
<linearGradient id="paint4_linear_224_10571" x1="4.21874" y1="18.2869" x2="43.6181" y2="18.2869" gradientUnits="userSpaceOnUse">
<stop stop-color="#2B2E81"/>
<stop offset="1" stop-color="#BE4F9C"/>
</linearGradient>
</defs>
</svg>
