<svg width="24" height="24" viewBox="0 0 24 24" fill="none" xmlns="http://www.w3.org/2000/svg">
<path d="M11.2644 3.00013L11.3971 3.01469L18.8972 4.51469C19.2039 4.57605 19.4354 4.81938 19.4885 5.11876L19.5 5.25013V18.7455C19.5 19.0582 19.3068 19.333 19.0237 19.4438L18.8972 19.4809L11.3971 20.9809C11.1768 21.025 10.9483 20.9679 10.7745 20.8255C10.6355 20.7115 10.5432 20.5525 10.5119 20.3784L10.5 20.2455V3.75013L10.5119 3.6172C10.5432 3.44311 10.6355 3.28409 10.7745 3.17012C10.9135 3.05616 11.0876 2.99687 11.2644 3.00013ZM9 4.50013V6.00013H6V17.9955H9V19.4955H5.25C4.88181 19.4955 4.57559 19.2301 4.51208 18.8803L4.5 18.7455V5.25013C4.5 4.88194 4.76532 4.57572 5.11519 4.51221L5.25 4.50013H9ZM12 4.66499V19.3306L18 18.1306V5.86499L12 4.66499ZM14.25 11.2477C14.6642 11.2477 15 11.5835 15 11.9977C15 12.412 14.6642 12.7477 14.25 12.7477C13.8358 12.7477 13.5 12.412 13.5 11.9977C13.5 11.5835 13.8358 11.2477 14.25 11.2477Z" fill="#48464A"/>
</svg>
