<svg width="60" height="60" viewBox="0 0 60 60" fill="none" xmlns="http://www.w3.org/2000/svg">
<path d="M34.875 39.375H25.125C24.5625 39.375 24.1875 39.75 24.1875 40.3125C24.1875 40.875 24.5625 41.25 25.125 41.25H34.875C35.4375 41.25 35.8125 40.875 35.8125 40.3125C35.8125 39.75 35.4375 39.375 34.875 39.375Z" fill="url(#paint0_linear_224_10579)"/>
<path d="M31.125 43.125H25.125C24.5625 43.125 24.1875 43.5 24.1875 44.0625C24.1875 44.625 24.5625 45 25.125 45H31.125C31.6875 45 32.0625 44.625 32.0625 44.0625C32.0625 43.5 31.6875 43.125 31.125 43.125Z" fill="url(#paint1_linear_224_10579)"/>
<path d="M51.5625 30H50.625V25.3125V25.125C51 24.9375 51.375 24.75 51.75 24.375C52.3125 23.8125 52.5 23.0625 52.5 22.125C51.375 10.6875 41.625 1.875 30 1.875C18.375 1.875 8.625 10.6875 7.6875 22.3125C7.6875 23.0625 7.875 23.8125 8.4375 24.5625C8.8125 24.9375 9.1875 25.125 9.5625 25.3125V30H8.4375C6.9375 30 5.625 31.3125 5.625 32.8125V40.3125C5.625 41.8125 6.9375 43.125 8.4375 43.125H11.4375C11.8125 44.25 12.9375 45 14.0625 45C15.5625 45 16.875 43.6875 16.875 42.1875V30.9375C16.875 29.4375 15.5625 28.125 14.0625 28.125C12.75 28.125 11.8125 28.875 11.4375 30H11.25V25.3125V25.125C12.375 24.75 13.125 23.8125 13.3125 22.6875C14.0625 14.0625 21.1875 7.5 30 7.5C38.8125 7.5 45.9375 14.0625 46.875 22.875C47.0625 24 47.8125 24.9375 48.9375 25.3125V30H48.75C48.375 28.875 47.25 28.125 46.125 28.125C44.625 28.125 43.3125 29.4375 43.3125 30.9375V42.1875C43.3125 43.6875 44.625 45 46.125 45C47.4375 45 48.375 44.25 48.75 43.125H50.625V44.0625C50.625 49.6875 45.9375 54.375 40.3125 54.375H37.3125C36.9375 53.25 35.8125 52.5 34.6875 52.5H32.8125C31.3125 52.5 30 53.8125 30 55.3125C30 56.8125 31.3125 58.125 32.8125 58.125H34.6875C36 58.125 36.9375 57.375 37.3125 56.25H40.3125C47.0625 56.25 52.5 50.8125 52.5 44.0625V42.9375C53.625 42.5625 54.375 41.4375 54.375 40.3125V32.8125C54.375 31.3125 53.0625 30 51.5625 30ZM7.5 40.3125V32.8125C7.5 32.25 7.875 31.875 8.4375 31.875H11.25V41.25H8.4375C7.875 41.25 7.5 40.875 7.5 40.3125ZM14.0625 30C14.625 30 15 30.375 15 30.9375V42.1875C15 42.75 14.625 43.125 14.0625 43.125C13.5 43.125 13.125 42.75 13.125 42.1875V30.9375C13.125 30.375 13.5 30 14.0625 30ZM30 5.625C20.25 5.625 12.1875 12.9375 11.25 22.6875C11.25 23.4375 10.125 23.8125 9.5625 23.25C9.5625 22.875 9.375 22.6875 9.375 22.3125C10.5 11.8125 19.3125 3.75 30 3.75C40.6875 3.75 49.5 11.8125 50.625 22.3125C50.625 22.5 50.625 22.875 50.4375 23.0625C50.25 23.25 50.0625 23.4375 49.6875 23.4375C49.125 23.4375 48.75 23.0625 48.75 22.6875C47.8125 12.9375 39.75 5.625 30 5.625ZM34.6875 56.25H32.8125C32.25 56.25 31.875 55.875 31.875 55.3125C31.875 54.75 32.25 54.375 32.8125 54.375H34.6875C35.25 54.375 35.625 54.75 35.625 55.3125C35.625 55.875 35.25 56.25 34.6875 56.25ZM45.9375 43.125C45.375 43.125 45 42.75 45 42.1875V30.9375C45 30.375 45.375 30 45.9375 30C46.5 30 46.875 30.375 46.875 30.9375V42.1875C46.875 42.75 46.5 43.125 45.9375 43.125ZM52.5 40.3125C52.5 40.875 52.125 41.25 51.5625 41.25H48.75V31.875H51.5625C52.125 31.875 52.5 32.25 52.5 32.8125V40.3125Z" fill="url(#paint2_linear_224_10579)"/>
<path d="M36.5625 48.75C38.0625 48.75 39.375 47.4375 39.375 45.9375V38.4375C39.375 36.9375 38.0625 35.625 36.5625 35.625H23.4375C21.9375 35.625 20.625 36.9375 20.625 38.4375V45.9375C20.625 47.4375 21.9375 48.75 23.4375 48.75H24.375V51.5625C24.375 51.9375 24.5625 52.3125 24.9375 52.3125C25.125 52.3125 25.3125 52.5 25.3125 52.5C25.5 52.5 25.6875 52.5 25.875 52.3125L31.3125 48.75H36.5625ZM30.375 47.0625L26.25 49.875V47.8125C26.25 47.25 25.875 46.875 25.3125 46.875H23.4375C22.875 46.875 22.5 46.5 22.5 45.9375V38.4375C22.5 37.875 22.875 37.5 23.4375 37.5H36.5625C37.125 37.5 37.5 37.875 37.5 38.4375V45.9375C37.5 46.5 37.125 46.875 36.5625 46.875H30.9375C30.75 46.875 30.5625 46.875 30.375 47.0625Z" fill="url(#paint3_linear_224_10579)"/>
<defs>
<linearGradient id="paint0_linear_224_10579" x1="3.43687" y1="40.3125" x2="53.0644" y2="40.3125" gradientUnits="userSpaceOnUse">
<stop stop-color="#2B2E81"/>
<stop offset="1" stop-color="#BE4F9C"/>
</linearGradient>
<linearGradient id="paint1_linear_224_10579" x1="3.43687" y1="44.0625" x2="53.0644" y2="44.0625" gradientUnits="userSpaceOnUse">
<stop stop-color="#2B2E81"/>
<stop offset="1" stop-color="#BE4F9C"/>
</linearGradient>
<linearGradient id="paint2_linear_224_10579" x1="3.43687" y1="30" x2="53.0644" y2="30" gradientUnits="userSpaceOnUse">
<stop stop-color="#2B2E81"/>
<stop offset="1" stop-color="#BE4F9C"/>
</linearGradient>
<linearGradient id="paint3_linear_224_10579" x1="3.43688" y1="44.0625" x2="53.0644" y2="44.0625" gradientUnits="userSpaceOnUse">
<stop stop-color="#2B2E81"/>
<stop offset="1" stop-color="#BE4F9C"/>
</linearGradient>
</defs>
</svg>
