<svg width="30" height="30" viewBox="0 0 30 30" fill="none" xmlns="http://www.w3.org/2000/svg">
<path d="M4.11841 7.53784C4.11841 6.63095 4.47868 5.76121 5.11994 5.11994C5.76121 4.47868 6.63095 4.11841 7.53784 4.11841H9.09212C9.99501 4.1179 10.861 3.76031 11.5013 3.12367L12.5893 2.03567C12.907 1.71611 13.2848 1.46252 13.701 1.28947C14.1171 1.11643 14.5633 1.02734 15.0139 1.02734C15.4646 1.02734 15.9108 1.11643 16.3269 1.28947C16.7431 1.46252 17.1209 1.71611 17.4386 2.03567L18.5266 3.12367C19.1669 3.76031 20.0329 4.1179 20.9358 4.11841H22.4901C23.3969 4.11841 24.2667 4.47868 24.908 5.11994C25.5492 5.76121 25.9095 6.63095 25.9095 7.53784V9.09212C25.91 9.99501 26.2676 10.861 26.9042 11.5013L27.9922 12.5893C28.3118 12.907 28.5654 13.2848 28.7384 13.701C28.9115 14.1171 29.0006 14.5633 29.0006 15.0139C29.0006 15.4646 28.9115 15.9108 28.7384 16.3269C28.5654 16.7431 28.3118 17.1209 27.9922 17.4386L26.9042 18.5266C26.2676 19.1669 25.91 20.0329 25.9095 20.9358V22.4901C25.9095 23.3969 25.5492 24.2667 24.908 24.908C24.2667 25.5492 23.3969 25.9095 22.4901 25.9095H20.9358C20.0329 25.91 19.1669 26.2676 18.5266 26.9042L17.4386 27.9922C17.1209 28.3118 16.7431 28.5654 16.3269 28.7384C15.9108 28.9115 15.4646 29.0006 15.0139 29.0006C14.5633 29.0006 14.1171 28.9115 13.701 28.7384C13.2848 28.5654 12.907 28.3118 12.5893 27.9922L11.5013 26.9042C10.861 26.2676 9.99501 25.91 9.09212 25.9095H7.53784C6.63095 25.9095 5.76121 25.5492 5.11994 24.908C4.47868 24.2667 4.11841 23.3969 4.11841 22.4901V20.9358C4.1179 20.0329 3.76031 19.1669 3.12367 18.5266L2.03567 17.4386C1.71611 17.1209 1.46252 16.7431 1.28947 16.3269C1.11643 15.9108 1.02734 15.4646 1.02734 15.0139C1.02734 14.5633 1.11643 14.1171 1.28947 13.701C1.46252 13.2848 1.71611 12.907 2.03567 12.5893L3.12367 11.5013C3.76031 10.861 4.1179 9.99501 4.11841 9.09212V7.53784Z" fill="#489B1C"/>
<path d="M4.11841 7.53784C4.11841 6.63095 4.47868 5.76121 5.11994 5.11994C5.76121 4.47868 6.63095 4.11841 7.53784 4.11841H9.09212C9.99501 4.1179 10.861 3.76031 11.5013 3.12367L12.5893 2.03567C12.907 1.71611 13.2848 1.46252 13.701 1.28947C14.1171 1.11643 14.5633 1.02734 15.0139 1.02734C15.4646 1.02734 15.9108 1.11643 16.3269 1.28947C16.7431 1.46252 17.1209 1.71611 17.4386 2.03567L18.5266 3.12367C19.1669 3.76031 20.0329 4.1179 20.9358 4.11841H22.4901C23.3969 4.11841 24.2667 4.47868 24.908 5.11994C25.5492 5.76121 25.9095 6.63095 25.9095 7.53784V9.09212C25.91 9.99501 26.2676 10.861 26.9042 11.5013L27.9922 12.5893C28.3118 12.907 28.5654 13.2848 28.7384 13.701C28.9115 14.1171 29.0006 14.5633 29.0006 15.0139C29.0006 15.4646 28.9115 15.9108 28.7384 16.3269C28.5654 16.7431 28.3118 17.1209 27.9922 17.4386L26.9042 18.5266C26.2676 19.1669 25.91 20.0329 25.9095 20.9358V22.4901C25.9095 23.3969 25.5492 24.2667 24.908 24.908C24.2667 25.5492 23.3969 25.9095 22.4901 25.9095H20.9358C20.0329 25.91 19.1669 26.2676 18.5266 26.9042L17.4386 27.9922C17.1209 28.3118 16.7431 28.5654 16.3269 28.7384C15.9108 28.9115 15.4646 29.0006 15.0139 29.0006C14.5633 29.0006 14.1171 28.9115 13.701 28.7384C13.2848 28.5654 12.907 28.3118 12.5893 27.9922L11.5013 26.9042C10.861 26.2676 9.99501 25.91 9.09212 25.9095H7.53784C6.63095 25.9095 5.76121 25.5492 5.11994 24.908C4.47868 24.2667 4.11841 23.3969 4.11841 22.4901V20.9358C4.1179 20.0329 3.76031 19.1669 3.12367 18.5266L2.03567 17.4386C1.71611 17.1209 1.46252 16.7431 1.28947 16.3269C1.11643 15.9108 1.02734 15.4646 1.02734 15.0139C1.02734 14.5633 1.11643 14.1171 1.28947 13.701C1.46252 13.2848 1.71611 12.907 2.03567 12.5893L3.12367 11.5013C3.76031 10.861 4.1179 9.99501 4.11841 9.09212V7.53784" stroke="#489B1C" stroke-width="2" stroke-linecap="round" stroke-linejoin="round"/>
<path d="M10.332 19.6577L19.6577 10.332" stroke="#FFFBFF" stroke-width="2" stroke-linecap="round" stroke-linejoin="round"/>
<path d="M11.1092 11.8863C11.5384 11.8863 11.8863 11.5384 11.8863 11.1092C11.8863 10.68 11.5384 10.332 11.1092 10.332C10.68 10.332 10.332 10.68 10.332 11.1092C10.332 11.5384 10.68 11.8863 11.1092 11.8863Z" fill="#FFFBFF" stroke="#FFFBFF" stroke-width="2" stroke-linecap="round" stroke-linejoin="round"/>
<path d="M18.8865 19.6637C19.3157 19.6637 19.6637 19.3157 19.6637 18.8865C19.6637 18.4573 19.3157 18.1094 18.8865 18.1094C18.4573 18.1094 18.1094 18.4573 18.1094 18.8865C18.1094 19.3157 18.4573 19.6637 18.8865 19.6637Z" fill="#FFFBFF" stroke="#FFFBFF" stroke-width="2" stroke-linecap="round" stroke-linejoin="round"/>
</svg>
