<svg width="60" height="60" viewBox="0 0 60 60" fill="none" xmlns="http://www.w3.org/2000/svg">
<path d="M15.3745 27.9375C15.562 27.9375 15.7495 27.9375 15.937 27.75C16.312 27.5625 16.312 27.1875 16.312 26.8125L15.562 22.6875L18.562 19.875C18.7495 19.6875 18.937 19.3125 18.7495 18.9375C18.7495 18.5625 18.562 18.375 18.187 18.1875L14.062 17.625L12.187 13.875C11.812 13.3125 10.8745 13.3125 10.4995 13.875L8.62454 17.625L4.49954 18.1875C4.12454 18.1875 3.93704 18.5625 3.74954 18.75C3.56204 19.125 3.74954 19.5 3.93704 19.6875L6.93704 22.5L6.18704 26.625C6.18704 27 6.18704 27.375 6.56204 27.5625C6.93704 27.75 7.31204 27.75 7.49954 27.5625L11.2495 25.6875L14.9995 27.5625C15.187 27.9375 15.3745 27.9375 15.3745 27.9375ZM11.812 24C11.6245 24 11.437 23.8125 11.437 23.8125C11.437 23.8125 11.062 23.8125 11.062 24L8.62454 25.3125L8.99954 22.5C8.99954 22.125 8.99954 21.9375 8.81204 21.75L6.74954 19.875L9.37454 19.5C9.74954 19.5 9.93704 19.3125 10.1245 18.9375L11.2495 16.5L12.3745 18.9375C12.562 19.125 12.7495 19.5 13.1245 19.5L15.937 19.875L13.8745 21.75C13.687 21.9375 13.4995 22.3125 13.687 22.5L14.062 25.125L11.812 24Z" fill="url(#paint0_linear_224_10609)"/>
<path d="M34.1245 27.9375C34.312 27.9375 34.4995 27.9375 34.687 27.75C35.062 27.5625 35.062 27.1875 35.062 26.8125L34.312 22.6875L37.312 19.875C37.4995 19.6875 37.687 19.3125 37.4995 18.9375C37.312 18.5625 37.1245 18.375 36.7495 18.375L32.6245 17.8125L30.7495 14.0625C30.3745 13.5 29.437 13.5 29.062 14.0625L27.187 17.8125L23.062 18.375C22.687 18.375 22.4995 18.75 22.312 18.9375C22.1245 19.3125 22.312 19.6875 22.4995 19.875L25.4995 22.6875L24.7495 26.8125C24.7495 27.1875 24.7495 27.5625 25.1245 27.75C25.4995 27.9375 25.8745 27.9375 26.062 27.75L29.812 25.875L33.562 27.75C33.7495 27.9375 33.937 27.9375 34.1245 27.9375ZM30.3745 24C30.187 24 29.9995 23.8125 29.9995 23.8125C29.9995 23.8125 29.6245 23.8125 29.6245 24L27.187 25.3125L27.562 22.6875C27.562 22.3125 27.562 22.125 27.3745 21.9375L25.312 20.0625L28.1245 19.6875C28.4995 19.6875 28.687 19.5 28.8745 19.125L29.9995 16.5L31.1245 18.9375C31.312 19.125 31.4995 19.5 31.8745 19.5L34.687 19.875L32.6245 21.75C32.437 21.9375 32.2495 22.3125 32.437 22.5L32.812 25.125L30.3745 24Z" fill="url(#paint1_linear_224_10609)"/>
<path d="M56.2495 18.9375C56.062 18.5625 55.8745 18.375 55.4995 18.375L51.3745 17.8125L49.4995 14.0625C49.1245 13.5 48.187 13.5 47.812 14.0625L45.937 17.8125L41.812 18.375C41.437 18.375 41.2495 18.75 41.062 18.9375C40.8745 19.3125 41.062 19.6875 41.2495 19.875L44.2495 22.6875L43.4995 26.8125C43.4995 27.1875 43.4995 27.5625 43.8745 27.75C44.2495 27.9375 44.6245 27.9375 44.812 27.75L48.562 25.875L52.312 27.75C52.4995 27.75 52.687 27.9375 52.687 27.9375C52.8745 27.9375 53.062 27.9375 53.2495 27.75C53.6245 27.5625 53.6245 27.1875 53.6245 26.8125L52.8745 22.6875L55.8745 19.875C56.2495 19.6875 56.2495 19.3125 56.2495 18.9375ZM51.3745 21.75C51.187 21.9375 50.9995 22.3125 51.187 22.5L51.562 25.125L49.1245 23.8125C48.937 23.8125 48.7495 23.625 48.7495 23.625C48.7495 23.625 48.3745 23.625 48.3745 23.8125L45.937 25.125L46.312 22.5C46.312 22.125 46.312 21.9375 46.1245 21.75L44.062 19.875L46.8745 19.5C47.2495 19.5 47.437 19.3125 47.6245 18.9375L48.7495 16.5L49.8745 18.9375C50.062 19.125 50.2495 19.5 50.6245 19.5L53.437 19.875L51.3745 21.75Z" fill="url(#paint2_linear_224_10609)"/>
<path d="M27.562 36.9375L23.437 36.375L21.562 32.625C21.187 32.0625 20.2495 32.0625 19.8745 32.625L17.9995 36.375L13.8745 36.9375C13.4995 36.9375 13.312 37.3125 13.1245 37.5C12.937 37.875 13.1245 38.25 13.312 38.4375L16.312 41.25L15.562 45.375C15.562 45.75 15.562 46.125 15.937 46.3125C16.312 46.5 16.687 46.5 16.8745 46.3125L20.6245 44.4375L24.3745 46.3125C24.562 46.3125 24.7495 46.5 24.7495 46.5C24.937 46.5 25.1245 46.5 25.312 46.3125C25.687 46.125 25.687 45.75 25.687 45.375L24.937 41.25L27.937 38.4375C28.1245 38.25 28.312 37.875 28.1245 37.5C28.1245 37.125 27.7495 36.9375 27.562 36.9375ZM23.437 40.5C23.2495 40.6875 23.062 41.0625 23.2495 41.25L23.6245 43.875L21.187 42.5625C20.9995 42.5625 20.812 42.375 20.812 42.375C20.812 42.375 20.437 42.375 20.437 42.5625L17.9995 43.875L18.187 41.25C18.187 40.875 18.187 40.6875 17.9995 40.5L15.937 38.625L18.7495 38.25C19.1245 38.25 19.312 38.0625 19.4995 37.6875L20.6245 35.25L21.7495 37.6875C21.937 37.875 22.1245 38.25 22.4995 38.25L25.312 38.625L23.437 40.5Z" fill="url(#paint3_linear_224_10609)"/>
<path d="M46.1245 36.9375L41.9995 36.375L40.1245 32.625C39.7495 32.0625 38.812 32.0625 38.437 32.625L36.562 36.375L32.437 36.9375C32.062 36.9375 31.8745 37.3125 31.687 37.5C31.4995 37.875 31.687 38.25 31.8745 38.4375L34.8745 41.25L34.1245 45.375C34.1245 45.75 34.1245 46.125 34.4995 46.3125C34.8745 46.5 35.2495 46.5 35.437 46.3125L39.187 44.4375L42.937 46.3125C43.1245 46.3125 43.312 46.5 43.312 46.5C43.4995 46.5 43.687 46.5 43.8745 46.3125C44.2495 46.125 44.2495 45.75 44.2495 45.375L43.4995 41.25L46.4995 38.4375C46.687 38.25 46.8745 37.875 46.687 37.5C46.687 37.125 46.4995 36.9375 46.1245 36.9375ZM41.9995 40.5C41.812 40.6875 41.6245 41.0625 41.812 41.25L42.187 43.875L39.7495 42.5625C39.562 42.5625 39.3745 42.375 39.3745 42.375C39.3745 42.375 38.9995 42.375 38.9995 42.5625L36.562 43.875L36.937 41.25C36.937 40.875 36.937 40.6875 36.7495 40.5L34.687 38.625L37.4995 38.25C37.8745 38.25 38.062 38.0625 38.2495 37.6875L39.3745 35.25L40.4995 37.6875C40.687 37.875 40.8745 38.25 41.2495 38.25L44.062 38.625L41.9995 40.5Z" fill="url(#paint4_linear_224_10609)"/>
<defs>
<linearGradient id="paint0_linear_224_10609" x1="9.68767" y1="20.6981" x2="53.6545" y2="20.6981" gradientUnits="userSpaceOnUse">
<stop stop-color="#2B2E81"/>
<stop offset="1" stop-color="#BE4F9C"/>
</linearGradient>
<linearGradient id="paint1_linear_224_10609" x1="9.68766" y1="20.6981" x2="53.6545" y2="20.6981" gradientUnits="userSpaceOnUse">
<stop stop-color="#2B2E81"/>
<stop offset="1" stop-color="#BE4F9C"/>
</linearGradient>
<linearGradient id="paint2_linear_224_10609" x1="9.68766" y1="20.6981" x2="53.6545" y2="20.6981" gradientUnits="userSpaceOnUse">
<stop stop-color="#2B2E81"/>
<stop offset="1" stop-color="#BE4F9C"/>
</linearGradient>
<linearGradient id="paint3_linear_224_10609" x1="9.68766" y1="39.3487" x2="53.6545" y2="39.3487" gradientUnits="userSpaceOnUse">
<stop stop-color="#2B2E81"/>
<stop offset="1" stop-color="#BE4F9C"/>
</linearGradient>
<linearGradient id="paint4_linear_224_10609" x1="9.68766" y1="39.3487" x2="53.6545" y2="39.3487" gradientUnits="userSpaceOnUse">
<stop stop-color="#2B2E81"/>
<stop offset="1" stop-color="#BE4F9C"/>
</linearGradient>
</defs>
</svg>
