<svg width="24" height="24" viewBox="0 0 24 24" fill="none" xmlns="http://www.w3.org/2000/svg">
<g clip-path="url(#clip0_515_35420)">
<path d="M23.3414 7.14094C22.8614 6.60094 22.2014 6.24094 21.4814 6.24094H12.2414C11.9414 6.24094 11.6414 6.48094 11.6414 6.84094C11.6414 7.20094 11.9414 7.44094 12.2414 7.44094H21.4814C21.8414 7.44094 22.2014 7.62094 22.4414 7.86094C22.6814 8.16094 22.8014 8.52094 22.6814 8.88094L22.1414 11.8809H15.5414C15.2414 11.8809 14.9414 12.1209 14.9414 12.4809C14.9414 12.8409 15.2414 13.0809 15.5414 13.0809H21.9614L21.4214 15.9609C21.3614 16.3809 20.9414 16.6809 20.5214 16.6809H9.00141C8.58141 16.6809 8.22141 16.3809 8.10141 15.9609L5.76141 2.94094C5.70141 2.64094 5.46141 2.46094 5.16141 2.46094H0.541406C0.241406 2.46094 -0.0585938 2.70094 -0.0585938 3.06094C-0.0585938 3.42094 0.241406 3.66094 0.541406 3.66094H4.68141L6.96141 16.2609C7.08141 17.1009 7.68141 17.7009 8.46141 17.9409C8.16141 18.3609 7.92141 18.9009 7.92141 19.5009C7.92141 21.0009 9.12141 22.2009 10.6214 22.2009C12.1214 22.2009 13.3214 21.0009 13.3214 19.5009C13.3214 18.9609 13.1414 18.4209 12.8414 18.0009H16.5014C16.2014 18.4209 16.0214 18.9609 16.0214 19.5009C16.0214 21.0009 17.2214 22.2009 18.7214 22.2009C20.2214 22.2009 21.4214 21.0009 21.4214 19.5009C21.4214 18.9009 21.2414 18.3609 20.9414 17.9409C21.7214 17.7609 22.3814 17.1009 22.5614 16.2609L23.8814 9.18094C24.0014 8.46094 23.8214 7.74094 23.3414 7.14094ZM12.1214 19.4409C12.1214 20.2809 11.4614 20.9409 10.6214 20.9409C9.78141 20.9409 9.12141 20.2809 9.12141 19.4409C9.12141 18.6009 9.78141 17.9409 10.6214 17.9409C11.4614 17.9409 12.1214 18.6009 12.1214 19.4409ZM18.7814 20.9409C17.9414 20.9409 17.2814 20.2809 17.2814 19.4409C17.2814 18.6009 17.9414 17.9409 18.7814 17.9409C19.6214 17.9409 20.2814 18.6009 20.2814 19.4409C20.2814 20.2809 19.6214 20.9409 18.7814 20.9409Z" fill="#1C1B1E"/>
</g>
<defs>
<clipPath id="clip0_515_35420">
<rect width="24" height="24" fill="white"/>
</clipPath>
</defs>
</svg>
