<svg width="17" height="21" viewBox="0 0 17 21" fill="none" xmlns="http://www.w3.org/2000/svg">
<path d="M7.5 13.2547V16.4297C7.5 16.713 7.596 16.9507 7.788 17.1427C7.98 17.3347 8.21734 17.4304 8.5 17.4297C8.78334 17.4297 9.021 17.3337 9.213 17.1417C9.405 16.9497 9.50067 16.7124 9.5 16.4297V13.2547L10.4 14.1547C10.5 14.2547 10.6127 14.3297 10.738 14.3797C10.8633 14.4297 10.9883 14.4507 11.113 14.4427C11.2377 14.434 11.3583 14.4047 11.475 14.3547C11.5917 14.3047 11.7 14.2297 11.8 14.1297C11.9833 13.9297 12.0793 13.6964 12.088 13.4297C12.0967 13.163 12.0007 12.9297 11.8 12.7297L9.2 10.1297C9.1 10.0297 8.99167 9.95902 8.875 9.91769C8.75834 9.87636 8.63334 9.85536 8.5 9.85469C8.36667 9.85469 8.24167 9.87569 8.125 9.91769C8.00834 9.95969 7.9 10.0304 7.8 10.1297L5.2 12.7297C5 12.9297 4.90434 13.163 4.913 13.4297C4.92167 13.6964 5.02567 13.9297 5.225 14.1297C5.425 14.313 5.65834 14.409 5.925 14.4177C6.19167 14.4264 6.425 14.3304 6.625 14.1297L7.5 13.2547ZM2.5 20.4297C1.95 20.4297 1.479 20.2337 1.087 19.8417C0.695002 19.4497 0.499335 18.979 0.500002 18.4297V2.42969C0.500002 1.87969 0.696001 1.40869 1.088 1.01669C1.48 0.624689 1.95067 0.429023 2.5 0.429689H9.675C9.94167 0.429689 10.196 0.479689 10.438 0.579689C10.68 0.679689 10.8923 0.821356 11.075 1.00469L15.925 5.85469C16.1083 6.03802 16.25 6.25069 16.35 6.49269C16.45 6.73469 16.5 6.98869 16.5 7.25469V18.4297C16.5 18.9797 16.304 19.4507 15.912 19.8427C15.52 20.2347 15.0493 20.4304 14.5 20.4297H2.5ZM9.5 6.42969C9.5 6.71302 9.596 6.95069 9.788 7.14269C9.98 7.33469 10.2173 7.43036 10.5 7.42969H14.5L9.5 2.42969V6.42969Z" fill="#155724"/>
</svg>
