<svg width="24" height="16" viewBox="0 0 24 16" fill="none" xmlns="http://www.w3.org/2000/svg">
<path d="M13.13 0.867188C18.66 0.867188 23.14 4.08147 23.14 8.01005C23.14 11.9386 18.66 15.1529 13.13 15.1529C9.62 15.1529 6.55 13.8529 4.76 11.8886L6.34 10.9958C7.75 12.6315 10.26 13.7243 13.14 13.7243C15.2617 13.7243 17.2966 13.1223 18.7969 12.0507C20.2971 10.979 21.14 9.52557 21.14 8.01005C21.14 6.49452 20.2971 5.04107 18.7969 3.96943C17.2966 2.8978 15.2617 2.29576 13.14 2.29576C9.06 2.29576 5.7 4.48147 5.21 7.29576H7.97L4.23 9.96004L0.5 7.29576H3.19C3.69 3.68862 7.95 0.867188 13.13 0.867188ZM16.09 6.7529C16.59 6.76004 17 7.04576 17 7.41004V10.7029C17 11.06 16.59 11.36 16.08 11.36H10.55C10.04 11.36 9.63 11.06 9.63 10.7029V7.41004C9.63 7.04576 10.04 6.76004 10.54 6.7529V6.03147C10.54 4.93862 11.79 4.0529 13.31 4.0529C14.84 4.0529 16.09 4.93862 16.09 6.03147V6.7529ZM13.31 5.0529C12.56 5.0529 11.94 5.48862 11.94 6.03147V6.7529H14.69V6.03147C14.69 5.48862 14.07 5.0529 13.31 5.0529Z" fill="#856404"/>
</svg>
