<svg width="23" height="20" viewBox="0 0 23 20" fill="none" xmlns="http://www.w3.org/2000/svg">
<path d="M12.63 0.558594C18.16 0.558594 22.64 4.90406 22.64 10.2152C22.64 15.5263 18.16 19.8718 12.63 19.8718C9.12 19.8718 6.05 18.1143 4.26 15.4587L5.84 14.2517C7.25 16.463 9.76 17.9405 12.64 17.9405C14.7617 17.9405 16.7966 17.1266 18.2969 15.6778C19.7971 14.229 20.64 12.2641 20.64 10.2152C20.64 8.16632 19.7971 6.20137 18.2969 4.7526C16.7966 3.30383 14.7617 2.48991 12.64 2.48991C8.56 2.48991 5.2 5.44483 4.71 9.24953H7.47L3.73 12.8514L0 9.24953H2.69C3.19 4.37295 7.45 0.558594 12.63 0.558594ZM15.59 8.51563C16.09 8.52529 16.5 8.91155 16.5 9.40404V13.8557C16.5 14.3386 16.09 14.7441 15.58 14.7441H10.05C9.54 14.7441 9.13 14.3386 9.13 13.8557V9.40404C9.13 8.91155 9.54 8.52529 10.04 8.51563V7.54032C10.04 6.06286 11.29 4.86544 12.81 4.86544C14.34 4.86544 15.59 6.06286 15.59 7.54032V8.51563ZM12.81 6.21736C12.06 6.21736 11.44 6.80641 11.44 7.54032V8.51563H14.19V7.54032C14.19 6.80641 13.57 6.21736 12.81 6.21736Z" fill="#DB242D"/>
</svg>
