<svg width="30" height="30" viewBox="0 0 30 30" fill="none" xmlns="http://www.w3.org/2000/svg">
<path d="M22.2381 7.65387C18.6876 4.1555 13.2264 3.76334 9.2439 6.44319L9.23274 4.90475C9.23087 4.64581 9.01937 4.43741 8.76034 4.43947L7.82293 4.44678C7.56409 4.44875 7.35596 4.66016 7.35784 4.91891L7.38371 8.4275C7.38737 8.94294 7.80671 9.35769 8.32121 9.35769C8.32309 9.35769 8.32581 9.35769 8.32853 9.35769L11.8376 9.33181C12.0965 9.32994 12.3048 9.11834 12.3029 8.85941L12.2956 7.92181C12.2936 7.66297 12.0822 7.45484 11.8234 7.45672L11.227 7.46103C14.3656 5.89428 18.2868 6.39312 20.9217 8.98869C23.4503 11.4813 24.1412 15.2285 22.7043 18.4416C22.6021 18.6703 22.6859 18.9369 22.909 19.051L23.7457 19.4785C23.9828 19.5996 24.2826 19.502 24.3927 19.2597C26.1801 15.3219 25.3424 10.714 22.2381 7.65387ZM21.6787 20.6425C21.6768 20.6425 21.6741 20.6425 21.6714 20.6425L18.1623 20.6682C17.9034 20.6702 17.6951 20.8817 17.6971 21.1407L17.7044 22.0782C17.7063 22.337 17.9177 22.5451 18.1765 22.5433L18.7724 22.539C15.6336 24.1054 11.713 23.6061 9.07824 21.0114C6.54962 18.5187 5.85868 14.7715 7.29559 11.5585C7.39787 11.3297 7.31406 11.0632 7.09093 10.9491L6.25421 10.5216C6.01712 10.4005 5.71731 10.4981 5.60724 10.7404C3.81962 14.6781 4.65746 19.286 7.76162 22.3462C9.7675 24.3228 12.3842 25.3079 14.9988 25.3079C17.0121 25.3079 19.0234 24.7218 20.7557 23.5557L20.7669 25.0952C20.7688 25.3542 20.9803 25.5626 21.2393 25.5606L22.1767 25.5533C22.4356 25.5512 22.6437 25.3398 22.6418 25.0811L22.6159 21.5726C22.6126 21.0571 22.1933 20.6425 21.6787 20.6425Z" fill="#474747"/>
</svg>
