<svg width="33" height="32" viewBox="0 0 33 32" fill="none" xmlns="http://www.w3.org/2000/svg">
<path d="M15.5902 4H7.28354C4.63021 4 3.29688 5.34667 3.29688 8.02667V29.3333H10.4969V24.3333C10.4969 23.7867 10.9502 23.3333 11.4969 23.3333C12.0435 23.3333 12.4969 23.7733 12.4969 24.3333V29.3333H19.5635V8.02667C19.5635 5.34667 18.2435 4 15.5902 4ZM14.8302 17H8.23021C7.68354 17 7.23021 16.5467 7.23021 16C7.23021 15.4533 7.68354 15 8.23021 15H14.8302C15.3769 15 15.8302 15.4533 15.8302 16C15.8302 16.5467 15.3769 17 14.8302 17ZM14.8302 12H8.23021C7.68354 12 7.23021 11.5467 7.23021 11C7.23021 10.4533 7.68354 10 8.23021 10H14.8302C15.3769 10 15.8302 10.4533 15.8302 11C15.8302 11.5467 15.3769 12 14.8302 12Z" fill="#136397"/>
<path d="M31.1615 28.3341H28.1348V24.3341C29.4015 23.9208 30.3215 22.7341 30.3215 21.3341V18.6675C30.3215 16.9208 28.8948 15.4941 27.1481 15.4941C25.4015 15.4941 23.9748 16.9208 23.9748 18.6675V21.3341C23.9748 22.7208 24.8815 23.8941 26.1215 24.3208V28.3341H1.82812C1.28146 28.3341 0.828125 28.7875 0.828125 29.3341C0.828125 29.8808 1.28146 30.3341 1.82812 30.3341H27.0681C27.0948 30.3341 27.1081 30.3475 27.1348 30.3475C27.1615 30.3475 27.1748 30.3341 27.2015 30.3341H31.1615C31.7081 30.3341 32.1615 29.8808 32.1615 29.3341C32.1615 28.7875 31.7081 28.3341 31.1615 28.3341Z" fill="#136397"/>
</svg>
