<svg width="32" height="32" viewBox="0 0 32 32" fill="none" xmlns="http://www.w3.org/2000/svg">
<path d="M16 24.9993C15.4533 24.9993 15 24.546 15 23.9993V22.666C15 22.1193 15.4533 21.666 16 21.666C16.5467 21.666 17 22.1193 17 22.666V23.9993C17 24.546 16.5467 24.9993 16 24.9993Z" fill="#136397"/>
<path d="M16 30.3333C15.4533 30.3333 15 29.88 15 29.3333V28C15 27.4533 15.4533 27 16 27C16.5467 27 17 27.4533 17 28V29.3333C17 29.88 16.5467 30.3333 16 30.3333Z" fill="#136397"/>
<path d="M2.6668 30.3341C2.5868 30.3341 2.5068 30.3208 2.4268 30.3074C1.89346 30.1741 1.56013 29.6274 1.69346 29.0941L3.0268 23.7608C3.16013 23.2274 3.69346 22.8941 4.24013 23.0274C4.77346 23.1608 5.1068 23.7074 4.97346 24.2408L3.64013 29.5741C3.52013 30.0274 3.12013 30.3341 2.6668 30.3341Z" fill="#136397"/>
<path d="M29.0009 30.0029C28.5476 30.0029 28.1476 29.6962 28.0276 29.2429L26.6942 23.9095C26.5609 23.3762 26.8809 22.8295 27.4276 22.6962C27.9609 22.5629 28.5076 22.8829 28.6409 23.4295L29.9742 28.7629C30.1076 29.2962 29.7876 29.8429 29.2409 29.9762C29.1609 29.9895 29.0809 30.0029 29.0009 30.0029Z" fill="#136397"/>
<path d="M25.5229 7.06732C25.5229 7.46732 25.1896 7.78732 24.8029 7.78732H7.37625C6.97625 7.78732 6.65625 7.45398 6.65625 7.06732C6.65625 6.66732 6.98958 6.34732 7.37625 6.34732H8.36292L8.73625 4.60065C9.08292 2.89398 9.80292 1.33398 12.6829 1.33398H19.4696C22.3496 1.33398 23.0829 2.89398 23.4296 4.58732L23.8029 6.33398H24.7896C25.1896 6.33398 25.5229 6.66732 25.5229 7.06732Z" fill="#136397"/>
<path d="M25.9361 12.5336C25.7895 10.9336 25.3628 9.24023 22.2561 9.24023H9.90946C6.8028 9.24023 6.38946 10.9469 6.22946 12.5336L5.6828 18.4269C5.61613 19.1602 5.85613 19.8936 6.3628 20.4536C6.8828 21.0136 7.6028 21.3336 8.37613 21.3336H10.1895C11.7628 21.3336 12.0561 20.4402 12.2561 19.8402L12.4561 19.2536C12.6828 18.5869 12.7361 18.4269 13.6028 18.4269H18.5628C19.4295 18.4269 19.4561 18.5202 19.7095 19.2536L19.9095 19.8402C20.0961 20.4402 20.4028 21.3336 21.9628 21.3336H23.7761C24.5361 21.3336 25.2695 21.0136 25.7895 20.4536C26.2961 19.9069 26.5361 19.1602 26.4695 18.4269L25.9361 12.5336ZM13.1761 14.5602H10.2828C9.8828 14.5602 9.5628 14.2269 9.5628 13.8402C9.5628 13.4536 9.89613 13.1202 10.2828 13.1202H13.1895C13.5895 13.1202 13.9095 13.4536 13.9095 13.8402C13.9095 14.2269 13.5761 14.5602 13.1761 14.5602ZM21.8828 14.5602H18.9761C18.5761 14.5602 18.2561 14.2269 18.2561 13.8402C18.2561 13.4536 18.5895 13.1202 18.9761 13.1202H21.8828C22.2828 13.1202 22.6028 13.4536 22.6028 13.8402C22.6028 14.2269 22.2828 14.5602 21.8828 14.5602Z" fill="#136397"/>
</svg>
