<svg width="33" height="32" viewBox="0 0 33 32" fill="none" xmlns="http://www.w3.org/2000/svg">
<g clip-path="url(#clip0_6857_144517)">
<path d="M21.8333 7.99935V15.9993C21.8333 17.466 23.0333 18.666 24.5 18.666H25.8333V27.9993C25.8333 28.7327 26.4333 29.3327 27.1667 29.3327C27.9 29.3327 28.5 28.7327 28.5 27.9993V4.17268C28.5 3.30602 27.6867 2.66602 26.8467 2.86602C23.9667 3.57268 21.8333 6.01268 21.8333 7.99935ZM15.1667 11.9993H12.5V3.99935C12.5 3.26602 11.9 2.66602 11.1667 2.66602C10.4333 2.66602 9.83333 3.26602 9.83333 3.99935V11.9993H7.16667V3.99935C7.16667 3.26602 6.56667 2.66602 5.83333 2.66602C5.1 2.66602 4.5 3.26602 4.5 3.99935V11.9993C4.5 14.946 6.88667 17.3327 9.83333 17.3327V27.9993C9.83333 28.7327 10.4333 29.3327 11.1667 29.3327C11.9 29.3327 12.5 28.7327 12.5 27.9993V17.3327C15.4467 17.3327 17.8333 14.946 17.8333 11.9993V3.99935C17.8333 3.26602 17.2333 2.66602 16.5 2.66602C15.7667 2.66602 15.1667 3.26602 15.1667 3.99935V11.9993Z" fill="#136397"/>
</g>
<defs>
<clipPath id="clip0_6857_144517">
<rect width="32" height="32" fill="white" transform="translate(0.5)"/>
</clipPath>
</defs>
</svg>
